<?xml version="1.0" encoding="UTF-8" standalone="no"?>
<!-- Created with Inkscape (http://www.inkscape.org/) -->

<svg
   width="89.929832mm"
   height="93.915642mm"
   viewBox="0 0 89.929833 93.915642"
   version="1.1"
   id="svg5"
   inkscape:version="1.1.1 (3bf5ae0d25, 2021-09-20)"
   sodipodi:docname="batmansvg.svg"
   xmlns:inkscape="http://www.inkscape.org/namespaces/inkscape"
   xmlns:sodipodi="http://sodipodi.sourceforge.net/DTD/sodipodi-0.dtd"
   xmlns="http://www.w3.org/2000/svg"
   xmlns:svg="http://www.w3.org/2000/svg">
  <sodipodi:namedview
     id="namedview7"
     pagecolor="#ffffff"
     bordercolor="#666666"
     borderopacity="1.0"
     inkscape:pageshadow="2"
     inkscape:pageopacity="0.0"
     inkscape:pagecheckerboard="0"
     inkscape:document-units="mm"
     showgrid="false"
     inkscape:zoom="0.45291836"
     inkscape:cx="610.4853"
     inkscape:cy="546.4561"
     inkscape:window-width="1920"
     inkscape:window-height="1017"
     inkscape:window-x="-8"
     inkscape:window-y="113"
     inkscape:window-maximized="1"
     inkscape:current-layer="layer1" />
  <defs
     id="defs2" />
  <g
     inkscape:label="Calque 1"
     inkscape:groupmode="layer"
     id="layer1"
     transform="translate(-130.19259,-79.81834)">
    <path
       style="fill:#000000;stroke-width:0.264583"
       d="m 130.67217,172.34491 c 1.37068,-3.97003 3.32559,-8.12951 5.54864,-11.80588 l 1.33923,-2.21474 -0.81983,-0.76583 c -0.69188,-0.64631 -0.79378,-0.89611 -0.65288,-1.60055 0.47896,-2.39482 4.33508,-7.47719 7.7773,-10.25049 1.88231,-1.51651 6.15143,-4.04497 7.67083,-4.54316 0.25519,-0.0837 0.18027,-0.55959 -0.30865,-1.9605 -1.49416,-4.28135 -1.48355,-4.05116 -1.48355,-32.18604 V 81.105761 l 0.64943,-0.64943 c 0.67813,-0.678132 1.456,-0.820293 2.21223,-0.404299 0.24509,0.134824 2.88641,3.529189 5.86959,7.543038 4.40821,5.93123 5.52305,7.277501 5.95312,7.188953 0.29104,-0.05992 1.68645,-0.413416 3.1009,-0.78554 5.38283,-1.41615 10.9388,-1.417018 15.73415,-0.0024 1.28239,0.378286 2.51021,0.738809 2.72849,0.801166 0.26959,0.07701 2.1365,-2.217218 5.82084,-7.153182 2.98317,-3.996605 5.69745,-7.394932 6.03172,-7.551835 0.86285,-0.405013 1.21121,-0.359243 2.00239,0.263094 l 0.69714,0.54837 v 26.145334 c 0,28.28613 0.003,28.21786 -1.44117,32.19665 l -0.61427,1.6923 1.92997,0.89171 c 5.59219,2.58375 11.02455,7.70619 13.32014,12.56022 0.66774,1.41193 0.74404,1.77963 0.50915,2.45346 -0.15198,0.43595 -0.54766,0.91626 -0.87931,1.06737 l -0.603,0.27474 1.13254,1.75502 c 2.11651,3.27974 6.22511,12.20129 6.22511,13.51734 0,0.19071 -13.91044,0.27614 -44.96491,0.27614 h -44.96492 z m 46.86301,-0.72962 c 1.90658,-0.36158 4.1602,-1.42722 5.28099,-2.49716 0.84996,-0.81138 1.13303,-0.90769 3.4452,-1.17214 5.8394,-0.66786 9.21198,-2.05528 12.6734,-5.21362 2.67904,-2.44447 4.90196,-3.92314 6.79462,-4.51975 0.9963,-0.31406 1.77093,-0.81547 2.67,-1.72826 1.24052,-1.25946 1.25825,-1.30065 0.86354,-2.00614 -0.50549,-0.9035 -1.12963,-0.99489 -3.22155,-0.4717 -2.45759,0.61463 -5.6566,2.29234 -7.6925,4.03428 -4.1828,3.57886 -4.86573,4.08137 -6.26108,4.60691 -1.4179,0.53403 -3.71475,1.06937 -6.01763,1.40257 -1.10528,0.15992 -1.11451,0.15431 -1.61768,-0.9832 -0.98226,-2.22055 -3.50669,-3.99584 -6.61028,-4.64862 -5.02716,-1.05736 -10.40142,1.01627 -12.00002,4.63016 -0.56547,1.27833 -0.49221,1.27091 -4.45727,0.45158 -3.07914,-0.63627 -4.93379,-1.61105 -7.41857,-3.8991 -3.62238,-3.33557 -7.62193,-5.48754 -10.90368,-5.86674 -1.32845,-0.1535 -1.40894,-0.12666 -1.84037,0.61374 l -0.45116,0.77425 1.3772,1.32656 c 0.83826,0.80743 1.89491,1.51366 2.70012,1.80466 1.87647,0.67815 4.42653,2.38908 6.8381,4.58794 3.27113,2.98259 6.77671,4.41657 12.45071,5.09301 2.18932,0.261 2.49079,0.36749 3.33307,1.1773 2.24852,2.16182 6.40924,3.19673 10.06484,2.50347 z m -3.25503,-3.10683 c -0.38365,-0.40019 -1.27224,-0.9314 -1.97465,-1.18047 -1.44485,-0.51235 -2.59461,-1.57986 -2.8606,-2.65599 l -0.17984,-0.72761 h 2.01305 2.01306 v -0.84565 -0.84565 l 0.92604,0.89755 0.92605,0.89756 0.92604,-0.89756 0.92604,-0.89755 v 0.84565 0.84565 h 1.98437 c 1.7816,0 1.98438,0.052 1.98438,0.50887 0,1.04738 -2.53856,3.1953 -3.77642,3.1953 -0.19685,0 -0.70012,0.35719 -1.11837,0.79375 -0.41826,0.43656 -0.83497,0.79375 -0.92604,0.79375 -0.0911,0 -0.47947,-0.32742 -0.86311,-0.7276 z m -12.75887,-8.43798 c 0.79813,-0.52993 1.45114,-1.04889 1.45114,-1.15325 0,-0.10436 -0.87695,-1.18883 -1.94877,-2.40994 -2.05257,-2.33844 -5.37305,-5.31905 -9.22328,-8.27922 l -2.3085,-1.77485 -1.5941,1.08253 c -0.87675,0.59539 -1.5941,1.17551 -1.5941,1.28915 0,0.11364 1.27992,1.16916 2.84427,2.34559 3.49159,2.62577 7.73277,6.43651 9.32657,8.37999 0.65484,0.79852 1.28175,1.45898 1.39313,1.46768 0.11138,0.009 0.85552,-0.41776 1.65364,-0.94768 z m 32.33961,-2.40994 c 2.83023,-2.82886 7.08906,-6.4196 9.86559,-8.31799 l 0.65324,-0.44663 -0.79375,-0.66027 c -0.43657,-0.36315 -1.21809,-0.90147 -1.73673,-1.19628 l -0.94297,-0.53601 -2.89349,2.24651 c -4.73267,3.67448 -10.43411,9.23386 -10.43411,10.17415 0,0.19417 2.57782,2.10996 2.8391,2.10996 0.0374,0 1.58682,-1.51805 3.44312,-3.37344 z m -13.42597,-6.04059 c 6.26179,-1.60134 11.80466,-6.27847 14.41896,-12.16687 0.67273,-1.51526 1.71497,-5.31514 1.71877,-6.2665 0.002,-0.43071 -0.55148,-0.46302 -7.92885,-0.46302 h -7.93071 l -0.38004,0.72761 c -1.3971,2.67474 -5.08052,3.86244 -7.74389,2.49697 -1.12092,-0.57468 -2.73757,-2.28016 -2.73757,-2.88799 0,-0.26506 -1.71983,-0.33659 -8.09305,-0.33659 h -8.09305 l 0.18865,1.12448 c 0.82878,4.94027 3.33346,9.6558 6.76976,12.74532 2.95875,2.66018 6.82607,4.59319 10.6829,5.33968 2.30205,0.44556 6.75938,0.29267 9.12812,-0.31309 z m -3.84274,-7.2611 -1.30931,-1.3293 0.79009,-0.64536 c 1.6948,-1.38434 4.92904,-1.92253 7.15388,-1.19043 1.0908,0.35894 3.02892,1.52831 3.02892,1.82751 0,0.0953 -0.57884,0.74336 -1.28631,1.44019 l -1.2863,1.26696 -1.02488,-0.54931 c -1.28758,-0.69009 -2.35302,-0.69593 -3.67856,-0.0201 -0.57086,0.29104 -1.04699,0.52917 -1.05807,0.52917 -0.0111,0 -0.60934,-0.59819 -1.32946,-1.3293 z m -11.66317,-19.82681 c 0.36746,-0.13971 0.92597,-0.51187 1.24113,-0.82703 l 0.57303,-0.57303 1.69174,0.69475 c 0.93046,0.38211 1.79288,0.69475 1.9165,0.69475 0.3358,0 1.67167,-3.22837 1.42914,-3.45376 -0.26945,-0.25041 -13.35933,-5.84236 -13.45188,-5.7466 -0.14397,0.14897 -1.44166,3.18888 -1.44166,3.37717 0,0.10801 0.59531,0.44379 1.32291,0.74617 1.25905,0.52323 1.32297,0.59839 1.32391,1.55663 0.003,2.62882 2.85606,4.49632 5.39518,3.53095 z m 23.90885,-0.27372 c 1.13187,-0.6901 1.91359,-2.01088 1.91482,-3.23522 0.001,-0.92923 0.0757,-1.01696 1.32391,-1.55393 0.7276,-0.31301 1.32292,-0.6812 1.32292,-0.8182 0,-0.29775 -1.07362,-2.90899 -1.31144,-3.18966 -0.26713,-0.31527 -13.64979,5.54998 -13.55903,5.94255 0.22809,0.9865 1.24747,3.11772 1.49155,3.11838 0.15512,5.3e-4 1.02937,-0.31646 1.94278,-0.70417 l 1.66074,-0.70492 0.72051,0.67115 c 0.39628,0.36914 0.8991,0.73615 1.11739,0.81557 0.89989,0.32745 2.55291,0.16021 3.37585,-0.34155 z"
       id="path21" />
  </g>
</svg>
