<?xml version="1.0" encoding="UTF-8" standalone="no"?>
<!-- Created with Inkscape (http://www.inkscape.org/) -->

<svg
   width="103.31114mm"
   height="120.54393mm"
   viewBox="0 0 103.31114 120.54393"
   version="1.1"
   id="svg5"
   inkscape:version="1.1.1 (3bf5ae0d25, 2021-09-20)"
   sodipodi:docname="hulk.svg"
   xmlns:inkscape="http://www.inkscape.org/namespaces/inkscape"
   xmlns:sodipodi="http://sodipodi.sourceforge.net/DTD/sodipodi-0.dtd"
   xmlns="http://www.w3.org/2000/svg"
   xmlns:svg="http://www.w3.org/2000/svg">
  <sodipodi:namedview
     id="namedview7"
     pagecolor="#ffffff"
     bordercolor="#666666"
     borderopacity="1.0"
     inkscape:pageshadow="2"
     inkscape:pageopacity="0.0"
     inkscape:pagecheckerboard="0"
     inkscape:document-units="mm"
     showgrid="false"
     inkscape:zoom="0.45291836"
     inkscape:cx="-18.767179"
     inkscape:cy="411.77399"
     inkscape:window-width="1920"
     inkscape:window-height="1017"
     inkscape:window-x="-8"
     inkscape:window-y="113"
     inkscape:window-maximized="1"
     inkscape:current-layer="layer1" />
  <defs
     id="defs2" />
  <g
     inkscape:label="Calque 1"
     inkscape:groupmode="layer"
     id="layer1"
     transform="translate(-296.40556,-115.35386)">
    <path
       style="fill:#000000;stroke-width:0.264583"
       d="m 342.83074,235.83532 c -6.8808,-1.01312 -13.78444,-3.54452 -19.05,-6.98516 -10.13011,-6.61925 -17.33249,-17.15674 -19.71391,-28.84259 -0.90381,-4.43507 -1.04363,-8.30384 -1.04988,-29.05055 -0.006,-19.06878 -0.0297,-20.05119 -0.55104,-22.62187 -0.68399,-3.37253 -1.927,-7.14454 -2.78448,-8.44974 -0.36128,-0.54991 -1.24821,-1.56982 -1.97097,-2.26647 -1.08317,-1.04404 -1.31244,-1.42627 -1.30471,-2.17515 0.0174,-1.69057 1.02692,-2.75256 3.62622,-3.81483 1.46219,-0.59756 1.5206,-0.65835 1.44518,-1.50405 -0.0432,-0.48473 0.0758,-1.08281 0.26458,-1.32908 0.37422,-0.48826 3.98591,-2.33519 5.55564,-2.84102 0.90356,-0.29116 0.95713,-0.36382 0.69403,-0.94126 -0.15681,-0.34415 -0.20579,-0.94176 -0.10885,-1.32801 0.31456,-1.25329 4.38457,-2.74111 10.47423,-3.82891 2.48203,-0.44337 14.69522,-1.85784 16.04144,-1.85784 0.22664,0 0.36273,-0.29779 0.36273,-0.79375 0,-0.44097 0.23519,-1.02893 0.52917,-1.32291 0.47975,-0.47975 0.88126,-0.52908 4.29948,-0.52826 5.58891,0.001 10.17226,0.50029 18.75927,2.04219 0.54467,0.0978 0.74136,2.5e-4 0.87996,-0.43645 0.0982,-0.30933 0.46387,-0.74939 0.81264,-0.97792 0.59564,-0.39028 0.88755,-0.33997 4.80858,0.8287 14.76404,4.40046 20.06894,6.66348 25.2119,10.75516 0.76856,0.61146 1.09712,0.71193 1.90132,0.58143 0.83023,-0.13473 1.07126,-0.0509 1.65056,0.5742 0.3731,0.40258 0.68019,0.86341 0.68242,1.02406 0.002,0.16065 0.1065,0.45379 0.23172,0.65141 0.18218,0.28752 0.53815,0.18944 1.78188,-0.49099 1.34234,-0.73437 1.65406,-0.81105 2.28657,-0.56249 1.53351,0.60264 1.48624,2.5272 -0.10233,4.16619 l -0.80988,0.83558 0.82843,0.48937 c 0.79697,0.47078 1.26572,1.40317 1.10369,2.19535 -0.0425,0.20776 -0.35171,0.74354 -0.68715,1.19063 -1.50127,2.00094 -3.02783,5.98263 -4.57211,11.92538 l -0.68754,2.64583 -0.17102,22.09271 c -0.19249,24.86829 -0.094,23.60426 -2.37342,30.45335 -5.02768,15.10683 -17.81636,26.43376 -33.74227,29.88552 -2.14141,0.46413 -3.7051,0.5883 -8.20208,0.65128 -3.05594,0.0428 -5.91344,0.0253 -6.35,-0.039 z m 13.75833,-6.42892 c 13.88303,-3.21027 24.72619,-12.95461 29.08459,-26.13721 0.39539,-1.19592 0.97044,-3.27951 1.27789,-4.63021 0.5359,-2.35431 0.56286,-3.24862 0.65219,-21.6381 l 0.0932,-19.1823 -2.018,-3.77031 c -1.1099,-2.07367 -2.1195,-3.77031 -2.24354,-3.77031 -0.33576,0 -3.6668,2.93925 -4.91594,4.33774 -0.83033,0.92959 -1.2744,1.21851 -1.87287,1.21851 -1.13544,0 -2.98001,-1.33346 -5.23593,-3.78511 l -1.97128,-2.14231 -0.95688,0.4563 c -0.52629,0.25097 -2.94135,1.74967 -5.36681,3.33043 -7.98509,5.20421 -8.56823,5.36707 -9.76123,2.72616 -0.37555,-0.83133 -1.3308,-2.62035 -2.12278,-3.97559 l -1.43997,-2.46408 -0.43777,0.85676 c -0.90719,1.77549 -2.02432,1.68512 -4.1621,-0.33671 l -1.41775,-1.34085 -1.26542,0.73655 c -0.69597,0.40511 -3.05135,1.9501 -5.23416,3.43332 -8.35541,5.67753 -10.06107,6.23784 -10.84755,3.56346 -0.24272,-0.82534 -3.38926,-6.869 -3.5793,-6.87486 -0.13589,-0.004 -3.38202,2.58468 -5.33445,4.25436 -1.43618,1.22821 -2.18464,1.12275 -3.69582,-0.52073 -1.00771,-1.09592 -1.27305,-1.26681 -1.38648,-0.89297 -0.0772,0.25428 -0.91852,3.12576 -1.8697,6.38106 l -1.72941,5.91873 0.009,12.33752 c 0.0102,13.5456 0.21813,17.99364 1.01037,21.6199 1.65453,7.57308 5.20706,14.04214 10.74201,19.56089 5.9978,5.98024 12.98835,9.58575 21.57579,11.12811 3.02986,0.54418 11.33649,0.31482 14.41979,-0.39815 z m -11.31093,-5.30269 c -0.88733,-0.70071 -0.9664,-1.82555 -0.17845,-2.53863 0.46925,-0.42467 1.19109,-0.52585 4.96094,-0.69539 2.42648,-0.10912 5.19676,-0.29711 6.15617,-0.41777 2.08847,-0.26263 3.09039,0.006 3.31191,0.88889 0.24424,0.9731 -0.10633,1.95427 -0.79131,2.21469 -0.69584,0.26456 -5.15848,0.70425 -9.68895,0.95462 -2.85859,0.15798 -3.08674,0.13339 -3.77031,-0.40641 z m -20.57136,-8.9698 c -4.2199,-1.38951 -6.25889,-5.20057 -5.04295,-9.42574 0.76039,-2.64223 4.7002,-5.47532 11.18338,-8.04187 13.4084,-5.30811 29.084,-4.3101 41.65316,2.65192 4.44862,2.46408 5.64752,3.94568 5.85897,7.2405 0.10573,1.64752 0.0294,2.13281 -0.52652,3.34708 -0.75575,1.65079 -1.93761,2.91924 -3.48109,3.73614 -1.65388,0.87534 -4.60949,0.82887 -6.38616,-0.1004 -4.98454,-2.6071 -6.22647,-3.1759 -8.52883,-3.90615 -3.5755,-1.13405 -6.72483,-1.62012 -10.48909,-1.61887 -5.76883,0.002 -11.37043,1.36141 -16.03878,3.89257 -1.23693,0.67066 -2.6985,1.45212 -3.24795,1.73659 -1.09248,0.56563 -3.88369,0.8407 -4.95414,0.48823 z m 3.74099,-3.93277 c 0.18395,-0.18395 0.12943,-0.68171 -0.17071,-1.5587 -0.4721,-1.37938 -0.64582,-5.09638 -0.28748,-6.15066 0.20936,-0.61595 0.17966,-0.6105 -1.44431,0.26459 -3.06179,1.64988 -4.12038,3.28734 -3.44608,5.33049 0.29322,0.88846 1.36567,2.09427 2.13676,2.40245 0.58363,0.23326 2.89804,0.0256 3.21182,-0.28817 z m 44.43802,0.0504 c 1.14601,-0.59262 1.82508,-1.85908 1.82625,-3.40595 8e-4,-1.19563 -0.0932,-1.39038 -1.15077,-2.38125 -0.63346,-0.59351 -1.61573,-1.33333 -2.18281,-1.64402 l -1.03105,-0.5649 -0.0207,2.81386 c -0.0145,1.96092 -0.15631,3.16909 -0.46802,3.98578 -0.35481,0.92961 -0.37788,1.21598 -0.11157,1.38501 0.55564,0.35267 2.29406,0.24825 3.1387,-0.18853 z m -4.11036,-2.92908 c 0.38121,-1.71347 0.40176,-2.29893 0.13698,-3.90261 -0.17134,-1.03769 -0.3948,-1.96641 -0.49659,-2.0638 -0.23577,-0.2256 -4.70743,-2.07187 -5.01806,-2.07187 -0.12799,0 -0.22403,1.22039 -0.21341,2.71198 0.0106,1.49159 -0.0797,3.18823 -0.20078,3.77031 l -0.2201,1.05833 2.46906,1.22254 c 1.35797,0.6724 2.60975,1.23795 2.78173,1.25678 0.18261,0.02 0.49923,-0.8043 0.76117,-1.98166 z m -36.36621,0.72949 c 1.22069,-0.562 2.43601,-1.09719 2.7007,-1.18932 0.35731,-0.12437 0.43339,-0.31837 0.29538,-0.75319 -0.37522,-1.18222 -0.5421,-3.69377 -0.35236,-5.30301 0.10719,-0.90901 0.1644,-1.68322 0.12715,-1.72047 -0.092,-0.092 -2.6515,0.81284 -4.15752,1.46981 -1.13656,0.4958 -1.2486,0.63332 -1.55438,1.90796 -0.36213,1.50955 -0.23842,4.7153 0.22701,5.88243 0.15958,0.40018 0.33615,0.7276 0.39237,0.7276 0.0562,0 1.10096,-0.45982 2.32165,-1.02181 z m 7.675,-2.68378 c 1.36506,-0.31554 2.75653,-0.62685 3.09215,-0.6918 0.57241,-0.11077 0.59699,-0.19537 0.39687,-1.36607 -0.26471,-1.54854 -0.27589,-4.14279 -0.0227,-5.27676 l 0.1906,-0.85375 -1.24699,0.17091 c -0.68585,0.094 -2.13925,0.35918 -3.22978,0.58926 -2.33976,0.49365 -2.59419,0.82496 -2.83446,3.69087 -0.17471,2.08405 0.30967,4.64211 0.84046,4.43843 0.18257,-0.0701 1.44882,-0.38555 2.81389,-0.70109 z m 21.43294,0.0676 c 0.38634,-0.98711 0.39477,-4.44805 0.0141,-5.77872 l -0.30966,-1.08236 -2.58083,-0.55627 c -1.41946,-0.30595 -2.87849,-0.60046 -3.24229,-0.65446 l -0.66146,-0.0982 v 2.92744 c 0,1.6101 -0.0595,3.27061 -0.13229,3.69004 l -0.13229,0.76259 2.24896,0.474 c 1.23692,0.2607 2.54661,0.5946 2.91041,0.74199 1.11441,0.45151 1.58338,0.34552 1.88538,-0.42607 z m -8.1771,-3.00749 c 0.29038,-1.70609 0.12417,-4.27214 -0.32375,-4.99843 -0.19243,-0.31201 -1.01395,-0.41251 -3.92504,-0.48017 l -3.68167,-0.0856 -0.29724,0.85266 c -0.37191,1.06686 -0.38388,4.28758 -0.0208,5.59495 l 0.2735,0.98478 3.62763,0.0736 c 1.99519,0.0404 3.72489,9e-5 3.84377,-0.0897 0.11888,-0.0898 0.34549,-0.92321 0.50358,-1.85208 z m -6.02134,-22.42158 c -0.44204,-0.26956 -1.17069,-0.94757 -1.61924,-1.50669 l -0.81553,-1.01659 -0.84847,0.71393 c -0.54775,0.46091 -1.15891,0.71394 -1.7244,0.71394 -0.76559,0 -1.06445,-0.23331 -2.37236,-1.85208 -0.82302,-1.01865 -1.56486,-1.85208 -1.64852,-1.85208 -0.0837,0 -0.5528,0.35181 -1.04254,0.78181 -0.48974,0.43 -1.36639,0.92442 -1.94811,1.0987 -0.96523,0.28919 -1.323,0.23184 -4.09294,-0.65609 -3.42313,-1.09732 -4.50703,-1.83592 -4.91441,-3.34883 -0.22383,-0.83124 -0.18281,-1.30542 0.21477,-2.48312 0.57768,-1.71115 0.63479,-1.66001 -2.14212,-1.9181 -2.71853,-0.25266 -3.75611,-1.41238 -2.66163,-2.97497 0.4156,-0.59334 0.54264,-0.61572 2.71198,-0.47775 5.7837,0.36785 11.91992,3.21001 16.42225,7.60642 l 1.91043,1.86549 0.66348,-0.66348 c 1.50397,-1.50397 2.54947,-1.23619 4.19907,1.07552 l 1.25562,1.7596 0.55422,-0.76372 c 1.88538,-2.5981 2.17677,-2.88711 2.99161,-2.96719 0.61533,-0.0605 1.05248,0.11963 1.70457,0.70227 l 0.877,0.7836 1.88868,-1.79407 c 3.37798,-3.20874 7.33549,-5.5089 11.60528,-6.74512 2.48863,-0.72053 5.71411,-1.12089 6.81149,-0.84546 1.37323,0.34466 1.47768,2.52786 0.14705,3.07356 -0.33034,0.13548 -1.37834,0.31931 -2.32888,0.40851 -2.3333,0.21896 -2.48252,0.33433 -1.98196,1.53233 0.55918,1.33832 0.50316,2.74106 -0.15179,3.80079 -0.67869,1.09815 -1.21927,1.38093 -4.67941,2.44784 -3.24132,0.99944 -4.14201,0.92569 -5.68156,-0.4652 l -1.04576,-0.94478 -1.09688,1.20982 c -0.60329,0.66539 -1.35577,1.5239 -1.67218,1.9078 -0.76207,0.9246 -1.9412,0.92446 -3.15373,-2.7e-4 -0.50357,-0.38409 -0.94972,-0.65198 -0.99144,-0.59531 -2.07037,2.81227 -3.5586,3.47764 -5.34364,2.38908 z"
       id="path218" />
  </g>
</svg>
